<?xml version="1.0" standalone="no"?>
<!DOCTYPE svg PUBLIC "-//W3C//DTD SVG 20010904//EN"
 "http://www.w3.org/TR/2001/REC-SVG-20010904/DTD/svg10.dtd">
<svg version="1.0" xmlns="http://www.w3.org/2000/svg"
 width="512.000000pt" height="512.000000pt" viewBox="0 0 512.000000 512.000000"
 preserveAspectRatio="xMidYMid meet">
<metadata>
Created by potrace 1.11, written by Peter Selinger 2001-2013
</metadata>
<g transform="translate(0.000000,512.000000) scale(0.100000,-0.100000)"
fill="#000000" stroke="none">
<path d="M3727 3614 c-1 -1 -36 -4 -77 -8 -95 -7 -120 -12 -200 -37 -132 -42
-238 -107 -319 -195 -108 -118 -154 -237 -155 -399 0 -118 19 -193 72 -279 88
-143 236 -229 587 -342 248 -80 348 -128 411 -197 52 -58 68 -109 61 -193 -11
-145 -110 -260 -262 -306 -62 -18 -103 -22 -210 -21 -91 0 -124 5 -190 27 -80
27 -169 73 -251 128 -54 36 -112 41 -151 12 -25 -19 -83 -101 -115 -161 -13
-26 -2 -37 102 -107 216 -143 476 -203 755 -172 290 31 528 183 622 396 45
102 60 169 62 287 2 109 -17 188 -66 268 -96 157 -223 228 -678 375 -276 89
-384 178 -385 316 -1 211 228 350 515 312 89 -12 157 -35 281 -94 117 -57 146
-63 181 -39 21 14 113 155 113 172 0 16 -132 110 -208 148 -82 41 -166 70
-245 86 -45 9 -245 27 -250 23z"/>
<path d="M650 3529 c11 -27 29 -73 41 -101 11 -29 27 -66 34 -83 15 -34 478
-1172 580 -1425 36 -91 72 -178 80 -195 7 -16 36 -86 63 -155 28 -69 56 -137
63 -152 l12 -28 172 0 173 0 32 83 c18 45 36 87 40 92 4 6 11 21 15 35 4 14
13 39 21 55 7 17 54 131 104 255 50 124 95 234 100 245 5 11 57 139 115 285
59 146 113 279 120 295 13 30 35 82 182 445 41 102 86 211 99 243 14 32 34 81
44 108 l20 50 -162 -2 c-177 -2 -202 -8 -236 -56 -14 -21 -360 -870 -368 -903
0 -3 -6 -18 -13 -35 -7 -16 -46 -115 -87 -220 -41 -104 -81 -203 -89 -220 -30
-65 -69 -197 -91 -305 -10 -47 -21 -41 -33 17 -17 75 -79 279 -96 318 -8 17
-48 118 -91 225 -42 107 -113 290 -159 405 -46 116 -122 309 -169 430 -47 121
-96 240 -108 265 -36 72 -61 79 -259 79 l-168 0 19 -50z"/>
</g>
</svg>
